<svg width="647" height="449" viewBox="0 0 647 449" fill="none" xmlns="http://www.w3.org/2000/svg">
<path d="M630.159 373.409C630.159 405.86 604.146 432.241 572.059 432.241C539.972 432.241 513.959 405.938 513.959 373.409C513.959 405.86 428.757 432.241 323.539 432.241C218.321 432.241 133.118 405.938 133.118 373.409C133.118 405.86 107.106 432.241 75.0186 432.241C42.9314 432.241 16.9189 405.938 16.9189 373.409" stroke="#FFE24F" stroke-width="32" stroke-miterlimit="10" stroke-linecap="round" stroke-linejoin="round"/>
<path d="M24.863 172.321L606.249 16.6031" stroke="#FFE24F" stroke-width="32" stroke-miterlimit="10" stroke-linecap="round"/>
<path d="M24.863 94.5011H606.249" stroke="#FFE24F" stroke-width="32" stroke-miterlimit="10" stroke-linecap="round"/>
<path d="M606.249 172.321L24.863 16.6031" stroke="#FFE24F" stroke-width="32" stroke-miterlimit="10" stroke-linecap="round"/>
<path d="M24.7852 212.944C24.7852 212.944 95.0344 172.244 323.461 172.244C519.567 172.244 620.658 203.45 622.137 231.932C623.617 260.414 500.486 291.62 323.461 291.62C5.47049 291.62 8.04059 231.854 323.461 231.854C547.682 231.854 622.137 271.542 622.137 291.62C622.137 311.698 548.539 351.308 323.539 351.308C98.5391 351.308 24.7852 310.686 24.7852 310.686" stroke="#FFE24F" stroke-width="32" stroke-miterlimit="10" stroke-linecap="round"/>
<path d="M352.853 380.768C365.049 368.582 361.77 345.547 345.528 329.318C329.287 313.089 306.234 309.813 294.037 321.999C281.841 334.186 285.12 357.221 301.362 373.45C317.603 389.678 340.657 392.955 352.853 380.768Z" stroke="#FFE24F" stroke-width="32" stroke-miterlimit="10"/>
</svg>
